<svg xmlns="http://www.w3.org/2000/svg" width="399.511" height="366.193" viewBox="0 0 399.511 366.193">
  <path id="icon-cart" d="M383.113,66.666H70.713L66.081,14.941A16.405,16.405,0,0,0,49.73,0H16.406a16.405,16.405,0,0,0,0,32.811h18.31l18.877,210.25c1.337,15.16,9.521,31.6,23.638,42.771-25.432,32.481-2.2,80.361,39.183,80.361,34.331,0,58.536-34.239,46.763-66.684h89.809c-11.755,32.408,12.4,66.684,46.781,66.684a49.747,49.747,0,0,0,0-99.495H116.524A30.446,30.446,0,0,1,88.51,248.224l262.213-15.417a16.405,16.405,0,0,0,14.959-12.4L399.024,87.063a16.424,16.424,0,0,0-15.929-20.4ZM116.4,333.383a16.955,16.955,0,0,1,0-33.873,16.955,16.955,0,0,1,0,33.873Zm183.371,0a16.955,16.955,0,1,1,16.168-16.936,16.955,16.955,0,0,1-16.168,16.936Zm37-132.617L84.1,215.6,73.661,99.495H362.093L336.771,200.747Z" transform="translate(-0.001)" fill="#fff"/>
</svg>
